<?xml version="1.0" encoding="utf-8"?>
<!-- Generator: Adobe Illustrator 16.0.4, SVG Export Plug-In . SVG Version: 6.00 Build 0)  -->
<!DOCTYPE svg PUBLIC "-//W3C//DTD SVG 1.1//EN" "http://www.w3.org/Graphics/SVG/1.1/DTD/svg11.dtd">
<svg version="1.1" id="Layer_1" xmlns="http://www.w3.org/2000/svg" xmlns:xlink="http://www.w3.org/1999/xlink" x="0px" y="0px"
	 width="1024px" height="1024px" viewBox="0 0 1024 1024" enable-background="new 0 0 1024 1024" xml:space="preserve">
<path fill="none" stroke="#000000" stroke-width="100" stroke-miterlimit="10" d="M498.398,98.521c0,0-446.679,0-446.679,415.879
	c0,415.877,446.679,415.877,446.679,415.877"/>
<path fill="none" stroke="#000000" stroke-width="100" stroke-miterlimit="10" d="M520.209,98.521H967V514.4
	c0,415.877-446.791,415.877-446.791,415.877"/>
<path d="M649.758,295.028c0,0-61.849-1.793-80.853-24.646c-19.009-22.854-45.614-76.868-45.614-76.868s95.551,53.433,109.489,71.24
	C646.72,282.562,649.758,295.028,649.758,295.028z"/>
<path d="M677.523,316.948c-22.572-40.201-42.46-59.695-63.991-79.238c-25.178-22.855-22.253-66.533-22.253-66.533
	s84.916,68.646,92.537,110.977C688.074,305.789,677.523,316.948,677.523,316.948z"/>
<path d="M714.387,344.273c0,0-16.491-27.274-15.834-49.245c0.72-24.056-17.991-48.49-30.225-71.238c0,0,62.611,35.386,68.369,64.875
	c3.541,18.144,0.995,32.859-7.198,42.126C721.933,339.354,714.387,344.273,714.387,344.273z"/>
<path d="M716.171,354.088c0,0,17.511-7.915,27.446-18.903c0,0,13.27,106.511-98.188,179.942
	c-52.03,34.279-122.394,42.896-122.394,42.896V445.695c0,0,53.455,3.088,102.12-21.291
	C653.312,410.297,697.995,390.986,716.171,354.088z"/>
<path d="M747.38,394.802c0,0,2.6-10.905,4.053-22.537c1.455-11.634,0-21.812,0-21.812l71.977,22.174L747.38,394.802z"/>
<g>
	<defs>
		<path id="SVGID_1_" d="M512,206.059c0,0-307.395,0-307.395,305.942C204.605,817.941,512,817.941,512,817.941"/>
	</defs>
	<clipPath id="SVGID_2_">
		<use xlink:href="#SVGID_1_"  overflow="visible"/>
	</clipPath>
	<rect x="396.595" y="207.062" clip-path="url(#SVGID_2_)" width="101.803" height="609.876"/>
</g>
</svg>
