<?xml version="1.0" encoding="utf-8"?>
<!-- Generator: Adobe Illustrator 21.0.0, SVG Export Plug-In . SVG Version: 6.00 Build 0)  -->
<svg version="1.1" xmlns="http://www.w3.org/2000/svg" xmlns:xlink="http://www.w3.org/1999/xlink" x="0px" y="0px"
	 viewBox="0 0 2048 2048" style="enable-background:new 0 0 2048 2048;" xml:space="preserve">
<style type="text/css">
	.st0{fill:#3E8CB7;}
	.st1{fill:none;stroke:#FFFFFF;stroke-width:200;stroke-miterlimit:10;}
</style>
<g id="Layer_3">
	<rect class="st0" width="2048" height="2048"/>
</g>
<g id="Layer_2">
	<line class="st1" x1="576.8" y1="893.2" x2="576.8" y2="643.2"/>
	<line class="st1" x1="576.8" y1="1405.2" x2="576.8" y2="1155.2"/>
	<line class="st1" x1="578.4" y1="385" x2="578.4" y2="310"/>
	<line class="st1" x1="1223.8" y1="893.2" x2="1223.8" y2="643.2"/>
	<line class="st1" x1="1223.8" y1="1405.2" x2="1223.8" y2="1155.2"/>
	<line class="st1" x1="1225.4" y1="385" x2="1225.4" y2="310"/>
	<path class="st1" d="M1211.1,368.4"/>
	<line class="st1" x1="1223.8" y1="1738" x2="1223.8" y2="1663"/>
	<path class="st1" d="M1209.5,1721.4"/>
	<path class="st1" d="M475.8,512c0,0,181.5,0,840.5,0c161,0,256,105,256,256c0,133-95,256-256,256c-128,0-512,0-512,0"/>
	<path class="st1" d="M475.8,1536c0,0,328.5,0,840.5,0c161,0,256-105,256-256c0-133-95-256-256-256c-128,0-840.5,0-840.5,0"/>
	<path class="st1" d="M744.1,368.4"/>
	<line class="st1" x1="576.8" y1="1738" x2="576.8" y2="1663"/>
	<path class="st1" d="M562.5,1721.4"/>
</g>
</svg>
